<svg width="29" height="29" viewBox="0 0 29 29" fill="none" xmlns="http://www.w3.org/2000/svg">
<path d="M29 0H0V29H29V0Z" fill="#7C7C7C"/>
<path d="M24.1462 18.8608H19.1725V23.1899H24.1462V18.8608Z" fill="white"/>
<path d="M24.1462 6.25067H19.1725V16.7744H24.1462V6.25067Z" fill="white"/>
<path d="M11.8721 19.2106H9.36252L9.01124 23.2263H6.50157L6.85291 19.2106H5.24042V16.1991H7.11638L7.42378 12.6856H5.24042V9.67409H7.68723L7.99463 6.16034H10.5042L10.1968 9.67409H12.7065L13.0139 6.16034H15.5235L15.2161 9.67409H16.7846V12.6856H14.9526L14.6452 16.1991H16.7846V19.2106H14.3817L14.0304 23.2263H11.5208L11.8721 19.2106ZM12.443 12.6856H9.93338L9.62598 16.1994H12.1356L12.443 12.6856Z" fill="white"/>
</svg>
